<svg width="20" height="20" viewBox="0 0 20 20" fill="none" xmlns="http://www.w3.org/2000/svg">
<path d="M4.00043 9.99996V4.99992C4.00043 3.34309 5.34357 1.99994 7.00043 1.99994H12.0004M12.0004 1.99994H12.1733C13.0185 1.99994 13.8246 2.3565 14.3931 2.98192L17.8278 6.75999C18.2606 7.23614 18.5004 7.85649 18.5004 8.49996M12.0004 1.99994V8.49996H18.5004M12.0004 18.4999H15.5004C17.1573 18.4999 18.5004 17.1568 18.5004 15.4999V8.49996" stroke="#101828" stroke-width="1.2" stroke-linecap="round" stroke-linejoin="round"/>
<path d="M7.83981 15.1083L6.56274 13.8312M8.69556 10.6385V10M10.3725 11.3029L10.824 10.8514M10.3725 14.6826L10.824 15.1341M6.99281 11.3029L6.54131 10.8514M11.0368 12.9798H11.6754M4.91592 18.0321L8.8481 14.1C9.01667 13.9314 9.10096 13.8471 9.13253 13.7499C9.16031 13.6644 9.16031 13.5723 9.13253 13.4868C9.10096 13.3896 9.01667 13.3053 8.8481 13.1368L8.53424 12.8229C8.36567 12.6543 8.28138 12.57 8.18417 12.5384C8.09867 12.5107 8.0066 12.5107 7.9211 12.5384C7.82388 12.57 7.7396 12.6543 7.57103 12.8229L3.63885 16.7551C3.47026 16.9236 3.38597 17.008 3.35439 17.1051C3.32661 17.1906 3.32661 17.2828 3.35439 17.3683C3.38597 17.4654 3.47026 17.5497 3.63885 17.7183L3.95267 18.0321C4.12128 18.2007 4.20556 18.285 4.30274 18.3166C4.38824 18.3444 4.48035 18.3444 4.56585 18.3166C4.66303 18.285 4.74731 18.2007 4.91592 18.0321Z" stroke="#101828" stroke-width="1.2" stroke-linecap="round" stroke-linejoin="round"/>
</svg>
