<svg width="20" height="20" viewBox="0 0 20 20" fill="none" xmlns="http://www.w3.org/2000/svg">
<path d="M0 8C0 3.58172 3.58172 0 8 0H46C50.4183 0 54 3.58172 54 8V46C54 50.4183 50.4183 54 46 54H8C3.58172 54 0 50.4183 0 46V8Z" fill="#373636"/>
<path d="M43 32C42.714 32 42.436 32.032 42.166 32.09L33.118 27L42.166 21.91C42.436 21.968 42.714 22 43 22C45.21 22 47 20.21 47 18C47 15.79 45.21 14 43 14C41.26 14 39.794 15.12 39.244 16.672L30.036 21.852C30.024 21.846 30.012 21.84 30 21.832V11.62C30.614 10.916 31 10.008 31 9C31 6.79 29.21 5 27 5C24.79 5 23 6.79 23 9C23 10.008 23.386 10.916 24 11.62V21.832C23.988 21.838 23.976 21.844 23.964 21.852L14.756 16.672C14.206 15.12 12.74 14 11 14C8.79 14 7 15.79 7 18C7 20.21 8.79 22 11 22C11.286 22 11.564 21.968 11.834 21.91L20.882 27L11.834 32.09C11.564 32.032 11.286 32 11 32C8.79 32 7 33.79 7 36C7 38.21 8.79 40 11 40C12.74 40 14.206 38.88 14.756 37.328L23.964 32.148C23.976 32.154 23.988 32.16 24 32.168V42.38C23.386 43.084 23 43.992 23 45C23 47.21 24.79 49 27 49C29.21 49 31 47.21 31 45C31 43.992 30.614 43.084 30 42.38V32.168C30.012 32.162 30.024 32.156 30.036 32.148L39.244 37.328C39.794 38.88 41.26 40 43 40C45.21 40 47 38.21 47 36C47 33.79 45.21 32 43 32Z" fill="url(#paint0_linear_12220_40)"/>
<path d="M27 6C28.654 6 30 7.346 30 9C30 9.91 29.59 10.57 29.248 10.962L29 11.244V11.62V21.832L29.036 22.424L29.53 22.714L30.026 23.004L30.526 22.722L39.734 17.542L40.06 17.36L40.186 17.006C40.61 15.806 41.742 15 43 15C44.654 15 46 16.346 46 18C46 19.654 44.654 21 43 21C42.798 21 42.586 20.978 42.374 20.932L42.004 20.854L41.676 21.038L32.628 26.128L31.078 27L32.628 27.872L41.676 32.962L42.004 33.146L42.374 33.068C42.586 33.022 42.798 33 43 33C44.654 33 46 34.346 46 36C46 37.654 44.654 39 43 39C41.742 39 40.61 38.194 40.186 36.994L40.06 36.64L39.732 36.456L30.524 31.276L29.99 31.014L29.496 31.302L29 31.594V32.168V42.38V42.756L29.248 43.038C29.59 43.43 30 44.09 30 45C30 46.654 28.654 48 27 48C25.346 48 24 46.654 24 45C24 44.09 24.41 43.43 24.752 43.038L25 42.756V42.38V32.168L24.964 31.576L24.47 31.286L23.974 30.996L23.474 31.278L14.266 36.458L13.94 36.64L13.814 36.994C13.39 38.194 12.258 39 11 39C9.346 39 8 37.654 8 36C8 34.346 9.346 33 11 33C11.202 33 11.414 33.022 11.626 33.068L11.996 33.146L12.324 32.962L21.372 27.872L22.922 27L21.372 26.128L12.324 21.038L11.994 20.854L11.626 20.932C11.414 20.978 11.202 21 11 21C9.346 21 8 19.654 8 18C8 16.346 9.346 15 11 15C12.258 15 13.39 15.806 13.814 17.006L13.94 17.36L14.268 17.544L23.476 22.724L24.01 22.986L24.504 22.698L25 22.406V21.832V11.62V11.244L24.752 10.962C24.41 10.57 24 9.91 24 9C24 7.346 25.346 6 27 6ZM27 5C24.79 5 23 6.79 23 9C23 10.008 23.386 10.916 24 11.62V21.832C23.988 21.838 23.976 21.844 23.964 21.852L14.756 16.672C14.206 15.12 12.74 14 11 14C8.79 14 7 15.79 7 18C7 20.21 8.79 22 11 22C11.286 22 11.564 21.968 11.834 21.91L20.882 27L11.834 32.09C11.564 32.032 11.286 32 11 32C8.79 32 7 33.79 7 36C7 38.21 8.79 40 11 40C12.74 40 14.206 38.88 14.756 37.328L23.964 32.148C23.976 32.154 23.988 32.16 24 32.168V42.38C23.386 43.082 23 43.992 23 45C23 47.21 24.79 49 27 49C29.21 49 31 47.21 31 45C31 43.992 30.614 43.082 30 42.38V32.168C30.012 32.162 30.024 32.156 30.036 32.148L39.244 37.328C39.794 38.88 41.26 40 43 40C45.21 40 47 38.21 47 36C47 33.79 45.21 32 43 32C42.714 32 42.436 32.032 42.166 32.09L33.118 27L42.166 21.91C42.436 21.968 42.714 22 43 22C45.21 22 47 20.21 47 18C47 15.79 45.21 14 43 14C41.26 14 39.794 15.12 39.244 16.672L30.036 21.852C30.024 21.846 30.012 21.84 30 21.832V11.62C30.614 10.916 31 10.008 31 9C31 6.79 29.21 5 27 5Z" fill="url(#paint1_linear_12220_40)"/>
<path d="M27 13C29.2091 13 31 11.2091 31 9C31 6.79086 29.2091 5 27 5C24.7909 5 23 6.79086 23 9C23 11.2091 24.7909 13 27 13Z" fill="url(#paint2_linear_12220_40)"/>
<path d="M43 22C45.2091 22 47 20.2091 47 18C47 15.7909 45.2091 14 43 14C40.7909 14 39 15.7909 39 18C39 20.2091 40.7909 22 43 22Z" fill="url(#paint3_linear_12220_40)"/>
<path d="M11 22C13.2091 22 15 20.2091 15 18C15 15.7909 13.2091 14 11 14C8.79086 14 7 15.7909 7 18C7 20.2091 8.79086 22 11 22Z" fill="url(#paint4_linear_12220_40)"/>
<path d="M27 49C29.2091 49 31 47.2091 31 45C31 42.7909 29.2091 41 27 41C24.7909 41 23 42.7909 23 45C23 47.2091 24.7909 49 27 49Z" fill="url(#paint5_linear_12220_40)"/>
<path d="M11 40C13.2091 40 15 38.2091 15 36C15 33.7909 13.2091 32 11 32C8.79086 32 7 33.7909 7 36C7 38.2091 8.79086 40 11 40Z" fill="url(#paint6_linear_12220_40)"/>
<path d="M43 40C45.2091 40 47 38.2091 47 36C47 33.7909 45.2091 32 43 32C40.7909 32 39 33.7909 39 36C39 38.2091 40.7909 40 43 40Z" fill="url(#paint7_linear_12220_40)"/>
<path d="M27 33C30.3137 33 33 30.3137 33 27C33 23.6863 30.3137 21 27 21C23.6863 21 21 23.6863 21 27C21 30.3137 23.6863 33 27 33Z" fill="url(#paint8_linear_12220_40)"/>
<defs>
<linearGradient id="paint0_linear_12220_40" x1="11.672" y1="11.672" x2="42.328" y2="42.328" gradientUnits="userSpaceOnUse">
<stop stop-color="white" stop-opacity="0.6"/>
<stop offset="1" stop-color="white" stop-opacity="0.3"/>
</linearGradient>
<linearGradient id="paint1_linear_12220_40" x1="11.672" y1="11.672" x2="42.328" y2="42.328" gradientUnits="userSpaceOnUse">
<stop stop-color="white" stop-opacity="0.6"/>
<stop offset="0.493" stop-color="white" stop-opacity="0"/>
<stop offset="0.997" stop-color="white" stop-opacity="0.3"/>
</linearGradient>
<linearGradient id="paint2_linear_12220_40" x1="24.172" y1="6.172" x2="29.828" y2="11.828" gradientUnits="userSpaceOnUse">
<stop stop-color="white" stop-opacity="0.7"/>
<stop offset="0.519" stop-color="white" stop-opacity="0.45"/>
<stop offset="1" stop-color="white" stop-opacity="0.55"/>
</linearGradient>
<linearGradient id="paint3_linear_12220_40" x1="40.172" y1="15.172" x2="45.828" y2="20.828" gradientUnits="userSpaceOnUse">
<stop stop-color="white" stop-opacity="0.7"/>
<stop offset="0.519" stop-color="white" stop-opacity="0.45"/>
<stop offset="1" stop-color="white" stop-opacity="0.55"/>
</linearGradient>
<linearGradient id="paint4_linear_12220_40" x1="8.172" y1="15.172" x2="13.828" y2="20.828" gradientUnits="userSpaceOnUse">
<stop stop-color="white" stop-opacity="0.7"/>
<stop offset="0.519" stop-color="white" stop-opacity="0.45"/>
<stop offset="1" stop-color="white" stop-opacity="0.55"/>
</linearGradient>
<linearGradient id="paint5_linear_12220_40" x1="24.172" y1="42.172" x2="29.828" y2="47.828" gradientUnits="userSpaceOnUse">
<stop stop-color="white" stop-opacity="0.7"/>
<stop offset="0.519" stop-color="white" stop-opacity="0.45"/>
<stop offset="1" stop-color="white" stop-opacity="0.55"/>
</linearGradient>
<linearGradient id="paint6_linear_12220_40" x1="8.172" y1="33.172" x2="13.828" y2="38.828" gradientUnits="userSpaceOnUse">
<stop stop-color="white" stop-opacity="0.7"/>
<stop offset="0.519" stop-color="white" stop-opacity="0.45"/>
<stop offset="1" stop-color="white" stop-opacity="0.55"/>
</linearGradient>
<linearGradient id="paint7_linear_12220_40" x1="40.172" y1="33.172" x2="45.828" y2="38.828" gradientUnits="userSpaceOnUse">
<stop stop-color="white" stop-opacity="0.7"/>
<stop offset="0.519" stop-color="white" stop-opacity="0.45"/>
<stop offset="1" stop-color="white" stop-opacity="0.55"/>
</linearGradient>
<linearGradient id="paint8_linear_12220_40" x1="22.758" y1="22.758" x2="31.242" y2="31.242" gradientUnits="userSpaceOnUse">
<stop stop-color="white" stop-opacity="0.7"/>
<stop offset="0.519" stop-color="white" stop-opacity="0.45"/>
<stop offset="1" stop-color="white" stop-opacity="0.55"/>
</linearGradient>
</defs>
</svg>
