<svg width="54" height="54" viewBox="0 0 54 54" fill="none" xmlns="http://www.w3.org/2000/svg">
<path d="M0 8C0 3.58172 3.58172 0 8 0H46C50.4183 0 54 3.58172 54 8V46C54 50.4183 50.4183 54 46 54H8C3.58172 54 0 50.4183 0 46V8Z" fill="#373636"/>
<path d="M49 35H47V33C47 31.896 46.104 31 45 31C43.896 31 43 31.896 43 33C43 31.552 43 30.104 43 29V27.492L47.656 21.592C48.488 20.538 47.716 19.014 46.352 19.014H44.084V12.004C44.084 10.344 42.704 9 41 9C40.668 9 40.356 9.064 40.056 9.158C39.718 9.066 39.368 9 39 9H13C10.79 9 9 10.79 9 13V17C9 19.21 10.79 21 13 21C10.79 21 9 22.79 9 25V29C9 31.21 10.79 33 13 33C10.79 33 9 34.79 9 37V41C9 43.21 10.79 45 13 45H27H31V49C31 50.1 31.9 51 33 51H49C50.1 51 51 50.1 51 49V39V37C51 35.896 50.104 35 49 35Z" fill="url(#paint0_linear_12220_26)"/>
<path d="M41 10C42.15 10 43.084 10.898 43.084 12.004V19.014V20.014H44.084H46.352C46.738 20.014 46.9 20.286 46.94 20.368C46.998 20.488 47.066 20.724 46.872 20.972L42.216 26.872L42 27.146V27.492V29V33H44C44 32.448 44.448 32 45 32C45.552 32 46 32.448 46 33V35V36H47H49C49.552 36 50 36.448 50 37V39V49C50 49.552 49.552 50 49 50H33C32.448 50 32 49.552 32 49V45V44H31H27H13C11.346 44 10 42.654 10 41V37C10 35.346 11.346 34 13 34V32C11.346 32 10 30.654 10 29V25C10 23.346 11.346 22 13 22V20C11.346 20 10 18.654 10 17V13C10 11.346 11.346 10 13 10H39C39.234 10 39.486 10.04 39.79 10.122L40.074 10.2L40.356 10.112C40.6 10.036 40.804 10 41 10ZM41 9C40.668 9 40.356 9.064 40.056 9.158C39.718 9.066 39.368 9 39 9H13C10.79 9 9 10.79 9 13V17C9 19.21 10.79 21 13 21C10.79 21 9 22.79 9 25V29C9 31.21 10.79 33 13 33C10.79 33 9 34.79 9 37V41C9 43.21 10.79 45 13 45H27H31V49C31 50.1 31.9 51 33 51H49C50.1 51 51 50.1 51 49V39V37C51 35.896 50.104 35 49 35H47V33C47 31.896 46.104 31 45 31C43.896 31 43 31.896 43 33C43 31.552 43 30.104 43 29V27.492L47.656 21.592C48.488 20.538 47.716 19.014 46.352 19.014H44.084V12.004C44.084 10.344 42.704 9 41 9Z" fill="url(#paint1_linear_12220_26)"/>
<path d="M49 35H47V33C47 31.896 46.104 31 45 31C43.896 31 43 31.896 43 33V35H39V33C39 31.896 38.104 31 37 31C35.896 31 35 31.896 35 33V35H33C31.896 35 31 35.896 31 37V39V49C31 50.1 31.9 51 33 51H49C50.1 51 51 50.1 51 49V39V37C51 35.896 50.104 35 49 35ZM37 47C35.9 47 35 46.1 35 45C35 43.9 35.9 43 37 43C38.1 43 39 43.9 39 45C39 46.1 38.1 47 37 47ZM45 47C43.9 47 43 46.1 43 45C43 43.9 43.9 43 45 43C46.1 43 47 43.9 47 45C47 46.1 46.1 47 45 47Z" fill="url(#paint2_linear_12220_26)"/>
<path d="M46.352 19.012H44.084V12.004C44.084 10.344 42.704 9 41 9C39.296 9 37.916 10.344 37.916 12.004V19.014H35.648C34.284 19.014 33.512 20.538 34.344 21.592L39.696 28.374C40.354 29.208 41.646 29.208 42.304 28.374L47.656 21.592C48.488 20.538 47.716 19.012 46.352 19.012Z" fill="url(#paint3_linear_12220_26)"/>
<path d="M17 45L27 41V45H17Z" fill="url(#paint4_linear_12220_26)"/>
<path d="M31.644 16.698L17 21H30.036C29.97 20.052 30.124 19.086 30.56 18.188C30.838 17.616 31.218 17.13 31.644 16.698Z" fill="url(#paint5_linear_12220_26)"/>
<path d="M31.258 31.258C31.502 30.454 31.926 29.732 32.46 29.108L17 33H28.556C29.278 32.198 30.2 31.58 31.258 31.258Z" fill="url(#paint6_linear_12220_26)"/>
<defs>
<linearGradient id="paint0_linear_12220_26" x1="10.082" y1="10.26" x2="50.324" y2="50.502" gradientUnits="userSpaceOnUse">
<stop stop-color="white" stop-opacity="0.6"/>
<stop offset="1" stop-color="white" stop-opacity="0.3"/>
</linearGradient>
<linearGradient id="paint1_linear_12220_26" x1="10.082" y1="10.26" x2="50.324" y2="50.502" gradientUnits="userSpaceOnUse">
<stop stop-color="white" stop-opacity="0.6"/>
<stop offset="0.493" stop-color="white" stop-opacity="0"/>
<stop offset="0.997" stop-color="white" stop-opacity="0.3"/>
</linearGradient>
<linearGradient id="paint2_linear_12220_26" x1="32.586" y1="34.586" x2="49.414" y2="51.412" gradientUnits="userSpaceOnUse">
<stop stop-color="white" stop-opacity="0.6"/>
<stop offset="1" stop-color="white" stop-opacity="0.3"/>
</linearGradient>
<linearGradient id="paint3_linear_12220_26" x1="35.5" y1="13.198" x2="46.5" y2="24.196" gradientUnits="userSpaceOnUse">
<stop stop-color="white" stop-opacity="0.6"/>
<stop offset="1" stop-color="white" stop-opacity="0.3"/>
</linearGradient>
<linearGradient id="paint4_linear_12220_26" x1="20.5" y1="41.5" x2="25.5" y2="46.5" gradientUnits="userSpaceOnUse">
<stop stop-color="white" stop-opacity="0.6"/>
<stop offset="1" stop-color="white" stop-opacity="0.3"/>
</linearGradient>
<linearGradient id="paint5_linear_12220_26" x1="21.736" y1="16.264" x2="28.254" y2="22.782" gradientUnits="userSpaceOnUse">
<stop stop-color="white" stop-opacity="0.6"/>
<stop offset="1" stop-color="white" stop-opacity="0.3"/>
</linearGradient>
<linearGradient id="paint6_linear_12220_26" x1="21.838" y1="28.162" x2="28.096" y2="34.42" gradientUnits="userSpaceOnUse">
<stop stop-color="white" stop-opacity="0.6"/>
<stop offset="1" stop-color="white" stop-opacity="0.3"/>
</linearGradient>
</defs>
</svg>
