<svg width="20" height="20" viewBox="0 0 20 20" fill="none" xmlns="http://www.w3.org/2000/svg">
<g clip-path="url(#clip0_12246_95247)">
<path d="M10 0.15625C8.875 0.15625 7.96875 1.0625 7.96875 2.1875C7.96875 3.3125 8.875 4.21875 10 4.21875C11.125 4.21875 12.0313 3.3125 12.0313 2.1875C12.0313 1.0625 11.125 0.15625 10 0.15625ZM10 1.09375C10.6094 1.09375 11.0938 1.57813 11.0938 2.1875C11.0938 2.79688 10.6094 3.28125 10 3.28125C9.39061 3.28125 8.90625 2.79688 8.90625 2.1875C8.90625 1.57813 9.39061 1.09375 10 1.09375ZM6.922 3.36365C6.83118 3.35669 6.73821 3.37506 6.65618 3.42194L5.84382 3.89068C5.62507 4.01568 5.547 4.3125 5.672 4.53125C5.75011 4.6875 5.92193 4.76564 6.07818 4.76564C6.15632 4.76564 6.23443 4.74993 6.31257 4.70307L7.12493 4.23432C7.34368 4.10932 7.42175 3.8125 7.29675 3.59375C7.21864 3.45703 7.07336 3.37524 6.922 3.36365ZM13.078 3.36365C12.9266 3.37524 12.7814 3.45703 12.7033 3.59375C12.5783 3.8125 12.6563 4.10932 12.8751 4.23432L13.6874 4.70307C13.7656 4.74993 13.8437 4.76564 13.9218 4.76564C14.0781 4.76564 14.2343 4.6875 14.328 4.53125C14.453 4.3125 14.3749 4.01568 14.1562 3.89068L13.3438 3.42194C13.2618 3.37506 13.1688 3.35669 13.078 3.36365ZM2.96875 4.0625C1.84375 4.0625 0.9375 4.96875 0.9375 6.09375C0.9375 7.21875 1.84375 8.125 2.96875 8.125C4.09375 8.125 5 7.21875 5 6.09375C5 4.96875 4.09375 4.0625 2.96875 4.0625ZM17.0313 4.0625C15.9063 4.0625 15 4.96875 15 6.09375C15 7.21875 15.9063 8.125 17.0313 8.125C18.1563 8.125 19.0625 7.21875 19.0625 6.09375C19.0625 4.96875 18.1563 4.0625 17.0313 4.0625ZM2.96875 5C3.57814 5 4.0625 5.48436 4.0625 6.09375C4.0625 6.70314 3.57814 7.1875 2.96875 7.1875C2.35938 7.1875 1.875 6.70314 1.875 6.09375C1.875 5.48436 2.35938 5 2.96875 5ZM17.0313 5C17.6406 5 18.125 5.48436 18.125 6.09375C18.125 6.70314 17.6406 7.1875 17.0313 7.1875C16.4219 7.1875 15.9375 6.70314 15.9375 6.09375C15.9375 5.48436 16.4219 5 17.0313 5ZM10 5.78125C7.59375 5.78125 5.625 7.75 5.625 10.1563C5.625 12.5625 7.59375 14.5313 10 14.5313C12.4063 14.5313 14.375 12.5625 14.375 10.1563C14.375 7.75 12.4063 5.78125 10 5.78125ZM10 6.71875C10.4688 6.71875 10.9063 6.81239 11.3126 6.98425V7.2345C11.3126 7.422 11.2031 7.60925 11.0156 7.68739C10.625 7.85925 10.2344 7.76557 10.0626 8.21868C9.93757 8.54682 10.2968 9.46868 10.7187 9.46868C11.2656 9.46868 11.5314 8.35936 11.6876 8.35936C11.797 8.35936 11.953 8.68739 12.1405 8.93739C12.2655 9.10925 12.4686 9.20318 12.6874 9.20318H13.0469L13.2813 9.26575C13.3906 9.53136 13.4375 9.84375 13.4375 10.1563C13.4375 12.0469 11.8906 13.5938 10 13.5938C9.42186 13.5938 8.87489 13.4531 8.3905 13.2031H8.40636C8.53136 13.125 8.67193 13.0469 8.81257 12.9532C8.92193 12.8751 9 12.7811 9.0625 12.6874C9.14064 12.5624 9.21886 12.4219 9.26575 12.2656C9.547 11.2031 8.625 11.1563 8.59375 10.9219C8.5625 10.6563 8.90636 10.4687 9.1095 10.2499C9.31261 10.0312 9.37511 9.71875 9.26575 9.53125C8.922 8.92186 8.10939 9.2345 8.04686 9.89075C8 10.2814 7.76568 10.6874 7.56257 10.8749C7.35943 11.0781 6.96882 10.9689 6.85943 10.672C6.73443 10.3439 7.15632 10.2189 7.09382 9.81261C7.07818 9.70325 6.95307 9.64057 6.81243 9.62493L6.57807 9.6405C6.85932 7.98425 8.28125 6.71875 10 6.71875ZM2.96875 9.0625C2.70313 9.0625 2.5 9.26561 2.5 9.53125V10.4688C2.5 10.7344 2.70313 10.9375 2.96875 10.9375C3.23438 10.9375 3.4375 10.7344 3.4375 10.4688V9.53125C3.4375 9.26561 3.23438 9.0625 2.96875 9.0625ZM17.0313 9.0625C16.7656 9.0625 16.5625 9.26561 16.5625 9.53125V10.4688C16.5625 10.7344 16.7656 10.9375 17.0313 10.9375C17.2969 10.9375 17.5 10.7344 17.5 10.4688V9.53125C17.5 9.26561 17.2969 9.0625 17.0313 9.0625ZM12.5156 10.3631C12.3296 10.3721 12.0703 10.4629 11.7188 10.7031C11.4531 10.8906 10.9688 10.4999 10.7657 10.7968C10.5626 11.0781 11.6094 11.9218 11.9531 11.7499C12.5469 11.4686 12.9218 10.8907 12.9218 10.6876C12.9315 10.5606 12.8255 10.3482 12.5156 10.3631ZM2.96875 11.875C1.84375 11.875 0.9375 12.7813 0.9375 13.9063C0.9375 15.0313 1.84375 15.9375 2.96875 15.9375C4.09375 15.9375 5 15.0313 5 13.9063C5 12.7813 4.09375 11.875 2.96875 11.875ZM17.0313 11.875C15.9063 11.875 15 12.7813 15 13.9063C15 15.0313 15.9063 15.9375 17.0313 15.9375C18.1563 15.9375 19.0625 15.0313 19.0625 13.9063C19.0625 12.7813 18.1563 11.875 17.0313 11.875ZM2.96875 12.8125C3.57814 12.8125 4.0625 13.2969 4.0625 13.9063C4.0625 14.5156 3.57814 15 2.96875 15C2.35938 15 1.875 14.5156 1.875 13.9063C1.875 13.2969 2.35938 12.8125 2.96875 12.8125ZM17.0313 12.8125C17.6406 12.8125 18.125 13.2969 18.125 13.9063C18.125 14.5156 17.6406 15 17.0313 15C16.4219 15 15.9375 14.5156 15.9375 13.9063C15.9375 13.2969 16.4219 12.8125 17.0313 12.8125ZM6.04675 15.2386C5.89539 15.2503 5.75011 15.332 5.672 15.4688C5.547 15.6875 5.62507 15.9843 5.84382 16.1093L6.65618 16.5781C6.73432 16.6249 6.81243 16.6406 6.89057 16.6406C7.04682 16.6406 7.203 16.5625 7.29675 16.4063C7.42175 16.1875 7.34368 15.8907 7.12493 15.7657L6.31257 15.2969C6.23054 15.2501 6.13757 15.2317 6.04675 15.2386ZM13.9533 15.2386C13.8624 15.2317 13.7695 15.2501 13.6874 15.2969L12.8751 15.7657C12.6563 15.8907 12.5783 16.1875 12.7033 16.4063C12.797 16.5625 12.9532 16.6406 13.1094 16.6406C13.1876 16.6406 13.2657 16.6249 13.3438 16.5781L14.1562 16.1093C14.3749 15.9843 14.453 15.6875 14.328 15.4688C14.2499 15.332 14.1046 15.2503 13.9533 15.2386ZM10 15.7813C8.875 15.7813 7.96875 16.6875 7.96875 17.8125C7.96875 18.9375 8.875 19.8438 10 19.8438C11.125 19.8438 12.0313 18.9375 12.0313 17.8125C12.0313 16.6875 11.125 15.7813 10 15.7813ZM10 16.7188C10.6094 16.7188 11.0938 17.2031 11.0938 17.8125C11.0938 18.4219 10.6094 18.9063 10 18.9063C9.39061 18.9063 8.90625 18.4219 8.90625 17.8125C8.90625 17.2031 9.39061 16.7188 10 16.7188Z" fill="#101828"/>
</g>
<defs>
<clipPath id="clip0_12246_95247">
<rect width="20" height="20" fill="white"/>
</clipPath>
</defs>
</svg>
