<svg width="54" height="54" viewBox="0 0 54 54" fill="none" xmlns="http://www.w3.org/2000/svg">
<path d="M0 8C0 3.58172 3.58172 0 8 0H46C50.4183 0 54 3.58172 54 8V46C54 50.4183 50.4183 54 46 54H8C3.58172 54 0 50.4183 0 46V8Z" fill="#373636"/>
<path d="M31 19H29V11C29 9.896 28.104 9 27 9C25.896 9 25 9.896 25 11V19H23C21.896 19 21 19.896 21 21V33C21 34.104 21.896 35 23 35H25V43C25 44.104 25.896 45 27 45C28.104 45 29 44.104 29 43V35H31C32.104 35 33 34.104 33 33V21C33 19.896 32.104 19 31 19ZM45 15H43V11C43 9.896 42.104 9 41 9C39.896 9 39 9.896 39 11V15H37C35.896 15 35 15.896 35 17V29C35 30.104 35.896 31 37 31H39V43C39 44.104 39.896 45 41 45C42.104 45 43 44.104 43 43V31H45C46.104 31 47 30.104 47 29V17C47 15.896 46.104 15 45 15ZM17 23H15V11C15 9.896 14.104 9 13 9C11.896 9 11 9.896 11 11V23H9C7.896 23 7 23.896 7 25V37C7 38.104 7.896 39 9 39H11V43C11 44.104 11.896 45 13 45C14.104 45 15 44.104 15 43V39H17C18.104 39 19 38.104 19 37V25C19 23.896 18.104 23 17 23Z" fill="url(#paint0_linear_12221_66)"/>
<path d="M41 10C41.552 10 42 10.448 42 11V15V16H43H45C45.552 16 46 16.448 46 17V29C46 29.552 45.552 30 45 30H43H42V31V43C42 43.552 41.552 44 41 44C40.448 44 40 43.552 40 43V31V30H39H37C36.448 30 36 29.552 36 29V17C36 16.448 36.448 16 37 16H39H40V15V11C40 10.448 40.448 10 41 10ZM27 10C27.552 10 28 10.448 28 11V19V20H29H31C31.552 20 32 20.448 32 21V33C32 33.552 31.552 34 31 34H29H28V35V43C28 43.552 27.552 44 27 44C26.448 44 26 43.552 26 43V35V34H25H23C22.448 34 22 33.552 22 33V21C22 20.448 22.448 20 23 20H25H26V19V11C26 10.448 26.448 10 27 10ZM13 10C13.552 10 14 10.448 14 11V23V24H15H17C17.552 24 18 24.448 18 25V37C18 37.552 17.552 38 17 38H15H14V39V43C14 43.552 13.552 44 13 44C12.448 44 12 43.552 12 43V39V38H11H9C8.448 38 8 37.552 8 37V25C8 24.448 8.448 24 9 24H11H12V23V11C12 10.448 12.448 10 13 10ZM41 9C39.896 9 39 9.896 39 11V15H37C35.896 15 35 15.896 35 17V29C35 30.104 35.896 31 37 31H39V43C39 44.104 39.896 45 41 45C42.104 45 43 44.104 43 43V31H45C46.104 31 47 30.104 47 29V17C47 15.896 46.104 15 45 15H43V11C43 9.896 42.104 9 41 9ZM27 9C25.896 9 25 9.896 25 11V19H23C21.896 19 21 19.896 21 21V33C21 34.104 21.896 35 23 35H25V43C25 44.104 25.896 45 27 45C28.104 45 29 44.104 29 43V35H31C32.104 35 33 34.104 33 33V21C33 19.896 32.104 19 31 19H29V11C29 9.896 28.104 9 27 9ZM13 9C11.896 9 11 9.896 11 11V23H9C7.896 23 7 23.896 7 25V37C7 38.104 7.896 39 9 39H11V43C11 44.104 11.896 45 13 45C14.104 45 15 44.104 15 43V39H17C18.104 39 19 38.104 19 37V25C19 23.896 18.104 23 17 23H15V11C15 9.896 14.104 9 13 9Z" fill="url(#paint1_linear_12221_66)"/>
<path d="M31 35H23C21.896 35 21 34.104 21 33V21C21 19.896 21.896 19 23 19H31C32.104 19 33 19.896 33 21V33C33 34.104 32.104 35 31 35Z" fill="url(#paint2_linear_12221_66)"/>
<path d="M45 31H37C35.896 31 35 30.104 35 29V17C35 15.896 35.896 15 37 15H45C46.104 15 47 15.896 47 17V29C47 30.104 46.104 31 45 31Z" fill="url(#paint3_linear_12221_66)"/>
<path d="M17 39H9C7.896 39 7 38.104 7 37V25C7 23.896 7.896 23 9 23H17C18.104 23 19 23.896 19 25V37C19 38.104 18.104 39 17 39Z" fill="url(#paint4_linear_12221_66)"/>
<defs>
<linearGradient id="paint0_linear_12221_66" x1="10.586" y1="10.586" x2="43.414" y2="43.414" gradientUnits="userSpaceOnUse">
<stop stop-color="white" stop-opacity="0.6"/>
<stop offset="1" stop-color="white" stop-opacity="0.3"/>
</linearGradient>
<linearGradient id="paint1_linear_12221_66" x1="10.586" y1="10.586" x2="43.414" y2="43.414" gradientUnits="userSpaceOnUse">
<stop stop-color="white" stop-opacity="0.6"/>
<stop offset="0.493" stop-color="white" stop-opacity="0"/>
<stop offset="0.997" stop-color="white" stop-opacity="0.3"/>
</linearGradient>
<linearGradient id="paint2_linear_12221_66" x1="20.586" y1="20.586" x2="33.414" y2="33.414" gradientUnits="userSpaceOnUse">
<stop stop-color="white" stop-opacity="0.7"/>
<stop offset="0.519" stop-color="white" stop-opacity="0.45"/>
<stop offset="1" stop-color="white" stop-opacity="0.55"/>
</linearGradient>
<linearGradient id="paint3_linear_12221_66" x1="34.586" y1="16.586" x2="47.414" y2="29.414" gradientUnits="userSpaceOnUse">
<stop stop-color="white" stop-opacity="0.7"/>
<stop offset="0.519" stop-color="white" stop-opacity="0.45"/>
<stop offset="1" stop-color="white" stop-opacity="0.55"/>
</linearGradient>
<linearGradient id="paint4_linear_12221_66" x1="6.586" y1="24.586" x2="19.414" y2="37.414" gradientUnits="userSpaceOnUse">
<stop stop-color="white" stop-opacity="0.7"/>
<stop offset="0.519" stop-color="white" stop-opacity="0.45"/>
<stop offset="1" stop-color="white" stop-opacity="0.55"/>
</linearGradient>
</defs>
</svg>
