<svg width="20" height="20" viewBox="0 0 20 20" fill="none" xmlns="http://www.w3.org/2000/svg">
<path d="M5.83332 7.91669L1.66666 10L9.99999 14.1667L18.3333 10L14.1667 7.91669" stroke="#101828" stroke-width="1.2" stroke-linecap="round" stroke-linejoin="round"/>
<path d="M5.83332 12.0833L1.66666 14.1666L9.99999 18.3333L18.3333 14.1666L14.1667 12.0833" stroke="#101828" stroke-width="1.2" stroke-linecap="round" stroke-linejoin="round"/>
<path d="M10.3333 1L2 5.16667L10.3333 9.33333L18.6667 5.16667L10.3333 1Z" stroke="#101828" stroke-width="1.2" stroke-linecap="round" stroke-linejoin="round"/>
<g clip-path="url(#clip0_12238_95227)">
<path d="M18.9286 18.5714L17.6786 17.3214M18.5714 15.1785C18.5714 16.8551 17.2123 18.2143 15.5357 18.2143C13.8591 18.2143 12.5 16.8551 12.5 15.1785C12.5 13.502 13.8591 12.1428 15.5357 12.1428C17.2123 12.1428 18.5714 13.502 18.5714 15.1785Z" stroke="#101828" stroke-width="1.2" stroke-linecap="round" stroke-linejoin="round"/>
</g>
<circle cx="15.5357" cy="15.1786" r="2.67857" fill="white"/>
<defs>
<clipPath id="clip0_12238_95227">
<rect width="8.57143" height="8.57143" fill="white" transform="translate(11.4286 11.0714)"/>
</clipPath>
</defs>
</svg>
